<?xml version="1.0" encoding="utf-8"?>
<!-- Generator: Adobe Illustrator 22.0.1, SVG Export Plug-In . SVG Version: 6.00 Build 0)  -->
<svg version="1.1" id="Layer_1" xmlns="http://www.w3.org/2000/svg" xmlns:xlink="http://www.w3.org/1999/xlink" x="0px" y="0px"
	 viewBox="0 0 100 99.8" style="enable-background:new 0 0 100 99.8;" xml:space="preserve">
<style type="text/css">
	.st0{fill:#FFFFFF;}
</style>
<path class="st0" d="M99.3,89.1L68.1,57.8c4.1-6.1,6.2-13.2,6.2-20.6c0-9.9-3.9-19.3-10.9-26.3C56.4,3.9,47.1,0,37.1,0
	S17.9,3.9,10.9,10.9C3.9,17.9,0,27.2,0,37.1s3.9,19.3,10.9,26.3s16.3,10.9,26.3,10.9c7.5,0,14.7-2.2,20.8-6.4l31.3,31.3
	c1.1,1.1,3,0.8,4.3-0.5l5.3-5.3C100.2,92.1,100.4,90.1,99.3,89.1z M37.1,64.2c-14.9,0-27.1-12.2-27.1-27.1s12.2-27.1,27.1-27.1
	s27.1,12.2,27.1,27.1S52.1,64.2,37.1,64.2z"/>
</svg>
